<!-- Generated by IcoMoon.io -->
<svg version="1.1" xmlns="http://www.w3.org/2000/svg" width="40" height="40" viewBox="0 0 40 40">
<title>camera</title>
<path d="M20 16c-3.314 0-6 2.688-6 6s2.686 6 6 6c3.312 0 6-2.688 6-6s-2.688-6-6-6zM36 10h-4.8c-0.66 0-1.372-0.512-1.578-1.14l-1.242-3.722c-0.21-0.626-0.918-1.138-1.58-1.138h-13.6c-0.66 0-1.372 0.512-1.578 1.136l-1.244 3.724c-0.208 0.628-0.918 1.14-1.578 1.14h-4.8c-2.2 0-4 1.8-4 4v18c0 2.2 1.8 4 4 4h32c2.2 0 4-1.8 4-4v-18c0-2.2-1.8-4-4-4zM20 32c-5.524 0-10-4.476-10-10s4.476-10 10-10c5.522 0 10 4.476 10 10s-4.478 10-10 10zM35 16.4c-0.774 0-1.4-0.628-1.4-1.402 0-0.77 0.626-1.4 1.4-1.4s1.4 0.628 1.4 1.4c0 0.774-0.626 1.402-1.4 1.402z"></path>
</svg>
