<!-- Generated by IcoMoon.io -->
<svg version="1.1" xmlns="http://www.w3.org/2000/svg" width="40" height="40" viewBox="0 0 40 40">
<title>globe</title>
<path d="M20 0.8c-10.59 0-19.202 8.614-19.202 19.2s8.612 19.2 19.202 19.2c10.586 0 19.2-8.614 19.2-19.2s-8.614-19.2-19.2-19.2zM36.376 20c0 3.746-1.272 7.2-3.392 9.96-0.6-0.468-1.238-1.734-0.638-3.046 0.606-1.32 0.764-4.376 0.624-5.566-0.132-1.188-0.75-4.050-2.428-4.078-1.676-0.024-2.826-0.578-3.822-2.566-2.066-4.136 3.878-4.93 1.812-7.218-0.578-0.644-3.566 2.644-4.004-1.738-0.028-0.314 0.27-0.784 0.672-1.272 6.488 2.18 11.176 8.314 11.176 15.524zM17.75 3.786c-0.392 0.764-1.426 1.074-2.054 1.648-1.368 1.238-1.956 1.066-2.692 2.254-0.742 1.188-3.134 2.898-3.134 3.758s1.208 1.872 1.812 1.676c0.604-0.2 2.198-0.188 3.134 0.14 0.938 0.332 7.828 0.664 5.632 6.488-0.696 1.852-3.746 1.54-4.558 4.606-0.122 0.45-0.544 2.372-0.57 3-0.050 0.972 0.688 4.636-0.25 4.636-0.942 0-3.476-3.278-3.476-3.872s-0.656-2.676-0.656-4.46c0-1.782-3.036-1.754-3.036-4.124 0-2.136 1.646-3.2 1.276-4.226-0.362-1.020-3.254-1.054-4.46-1.18 2.106-5.462 7.060-9.516 13.032-10.344zM14.848 35.54c0.984-0.52 1.084-1.192 1.976-1.226 1.020-0.046 1.85-0.398 3-0.652 1.020-0.222 2.846-1.258 4.452-1.39 1.356-0.11 4.030 0.070 4.75 1.378-2.59 1.722-5.696 2.726-9.028 2.726-1.798 0-3.53-0.298-5.15-0.836z"></path>
</svg>
